
<svg xmlns="http://www.w3.org/2000/svg" width="429.374" height="48.383" viewBox="0 0 429.374 48.383"><g transform="translate(-52 -40.764)"><path d="M148.392,77.382c6.448,0,9.285-3.859,11.516-3.859,1.266,0,2.107.966,2.107,2.471,0,2.715-6.087,5.969-13.623,5.969-12.421,0-18.809-10.672-18.809-21.824s6.388-21.824,19.109-21.824c7.6,0,12.421,4.1,12.421,6.27a2.3,2.3,0,0,1-2.167,2.532c-2.414,0-3.619-4.22-10.254-4.22-9.524,0-13.444,9.045-13.444,17.242s4.041,17.242,13.144,17.242" transform="translate(164.387 6.822)" fill="#231f20"></path><path d="M144.729,78.77c0,2.11-1.023,3.194-2.65,3.194s-2.654-1.084-2.654-3.194V41.51c0-2.11,1.026-3.194,2.654-3.194s2.65,1.084,2.65,3.194V57.79h22.61V41.51c0-2.11,1.023-3.194,2.654-3.194s2.65,1.084,2.65,3.194V78.77c0,2.11-1.023,3.194-2.65,3.194s-2.654-1.084-2.654-3.194v-16.4h-22.61Z" transform="translate(189.745 6.822)" fill="#231f20"></path><path d="M154.561,79.975a2.608,2.608,0,0,1-2.593,1.989,2.307,2.307,0,0,1-2.532-2.232,11.254,11.254,0,0,1,.726-2.65l13.322-35.511c.665-1.867,1.749-3.255,3.8-3.255s3.137,1.388,3.8,3.255L184.4,77.081a11.259,11.259,0,0,1,.722,2.65,2.3,2.3,0,0,1-2.529,2.232,2.612,2.612,0,0,1-2.6-1.989l-2.772-7.718h-19.9Zm12.782-35.511h-.121L158.96,67.675H175.6Z" transform="translate(215.538 6.822)" fill="#231f20"></path><path d="M165.682,79.674c-.243,1.867-1.448,2.289-2.836,2.289-1.627,0-2.471-1.084-2.471-2.715a15.487,15.487,0,0,1,.3-2.411l5.848-34.484c.544-3.015,2.232-4.038,4.159-4.038,2.11,0,3.258.783,3.863,2.775L183.707,72.5h.118l9.167-31.409c.6-1.992,1.745-2.775,3.859-2.775,1.928,0,3.616,1.023,4.159,4.038l5.848,34.484a15.065,15.065,0,0,1,.3,2.411c0,1.631-.844,2.715-2.471,2.715-1.388,0-2.593-.422-2.833-2.289l-5-34.484h-.122l-10.247,34.6a2.783,2.783,0,0,1-5.429,0l-10.247-34.6h-.125Z" transform="translate(243.719 6.822)" fill="#231f20"></path><path d="M179.668,78.871a2.658,2.658,0,1,1-5.3,0V41.31a2.61,2.61,0,0,1,2.829-2.893h10.49c8.623,0,13.927,6.03,13.927,13.5A13.363,13.363,0,0,1,187.865,65.3h-8.2Zm0-18.147H187.5a8.553,8.553,0,0,0,8.8-8.8c0-4.22-2.411-8.923-9.041-8.923h-7.6Z" transform="translate(279.764 7.082)" fill="#231f20"></path><path d="M102.866,44.241A4.179,4.179,0,0,1,98.832,48.7c-2.475,0-4.406-1.81-8.018-1.81-2.593,0-4.946,1.388-4.946,3.92C85.867,57.024,106,53.043,106,68.6c0,8.619-7.114,13.984-15.432,13.984-4.642,0-14.649-1.084-14.649-6.752a4.023,4.023,0,0,1,4.038-4.281c2.833,0,6.209,2.353,10.129,2.353,3.981,0,6.148-2.232,6.148-5.186,0-7.114-20.136-2.833-20.136-16.82,0-8.44,6.935-13.684,14.953-13.684,3.373,0,11.813,1.266,11.813,6.026" transform="translate(26.128 6.562)" fill="#231f20"></path><path d="M84.819,60.4c0-12.539,8.44-22.185,20.74-22.185,12.117,0,20.74,9.946,20.74,22.185,0,12.478-8.383,22.185-20.74,22.185-12.239,0-20.74-9.707-20.74-22.185m32.07,0c0-7.3-3.795-13.866-11.33-13.866S94.222,53.1,94.222,60.4c0,7.353,3.68,13.866,11.337,13.866s11.33-6.513,11.33-13.866" transform="translate(49.054 6.562)" fill="#231f20"></path><path d="M117.71,38.215c4.4,0,12.965,1.445,12.965,6.752a3.828,3.828,0,0,1-3.741,4.038c-2.468,0-4.163-2.11-9.224-2.11-7.475,0-11.337,6.33-11.337,13.687,0,7.171,3.92,13.322,11.337,13.322,5.061,0,7.117-2.536,9.589-2.536,2.707,0,3.977,2.718,3.977,4.1,0,5.787-9.106,7.114-13.566,7.114-12.239,0-20.74-9.707-20.74-22.185,0-12.539,8.44-22.185,20.74-22.185" transform="translate(80.36 6.562)" fill="#231f20"></path><path d="M107.875,43.019a4.524,4.524,0,1,1,9.041,0V77.26a4.524,4.524,0,1,1-9.041,0Z" transform="translate(108.457 6.822)" fill="#231f20"></path><path d="M123.818,43.218c1.026-2.775,3.376-5,6.452-5,3.194,0,5.426,2.11,6.452,5l11.817,32.8a7.039,7.039,0,0,1,.483,2.232,4.017,4.017,0,0,1-4.163,3.977,4.232,4.232,0,0,1-4.4-3.133l-1.81-5.669H121.89l-1.81,5.608a4.188,4.188,0,0,1-4.342,3.194,4.326,4.326,0,0,1-4.46-4.22,5.144,5.144,0,0,1,.422-1.989Zm.665,21.881h11.455l-5.608-17.482h-.122Z" transform="translate(117.227 6.562)" fill="#231f20"></path><path d="M122.571,43.019a4.526,4.526,0,1,1,9.045,0V73.283h10.729a4.092,4.092,0,0,1,4.342,4.338,4.225,4.225,0,0,1-4.342,3.981H127.27c-2.954,0-4.7-1.928-4.7-4.946Z" transform="translate(146.321 6.822)" fill="#231f20"></path><path d="M97.23,56.852l.018,16.7H70.339V46.645l17.256.011,8.512-8.466c-.336-.043-1.892.018-2.235.018l-23.533.025a8.412,8.412,0,0,0-8.412,8.412V73.554a8.412,8.412,0,0,0,8.412,8.412H97.248a8.412,8.412,0,0,0,8.412-8.412V48.608Z" transform="translate(-9.927 6.458)" fill="#231f20"></path><path d="M100.463,38.463a1.427,1.427,0,0,0-1.452-1.37l-7.675.165c-.773.014-.944.461-.383.994l1.753,1.656.043.043-.014.014q-8.181,8.213-16.359,16.427c-.39.39-.783.78-1.288,1.28,0,0-3.14-3.759-3.19-3.827a1.749,1.749,0,0,0-2.661-.511c-.812.547-1.624,1.105-2.432,1.659a1.808,1.808,0,0,0-.565,2.922c.139.207,5.755,7.432,5.755,7.432.114.165.232.325.361.479a2.62,2.62,0,0,0,4.249.215Q87.216,55.4,97.817,44.74l.2.193,1.735,1.638c.562.529.994.333.969-.436Z" transform="translate(-0.131 3.671)" fill="#f69320"></path></g></svg>